<svg xmlns="http://www.w3.org/2000/svg" width="900" height="600" font-family="DejaVu Sans, Liberation Sans, Arial, sans-serif" fill="black"><rect width="100%" height="100%" fill="white" /><defs><clipPath id="kuva-clip-0"><rect x="63.800000000000004" y="44" width="822.2" height="505"/></clipPath></defs><line x1="474.90000000000003" y1="44" x2="474.90000000000003" y2="549" stroke="#cccccc" stroke-width="1" /><line x1="886" y1="44" x2="886" y2="549" stroke="#cccccc" stroke-width="1" /><line x1="63.800000000000004" y1="476.86" x2="886" y2="476.86" stroke="#cccccc" stroke-width="1" /><line x1="63.800000000000004" y1="404.71000000000004" x2="886" y2="404.71000000000004" stroke="#cccccc" stroke-width="1" /><line x1="63.800000000000004" y1="332.57" x2="886" y2="332.57" stroke="#cccccc" stroke-width="1" /><line x1="63.800000000000004" y1="260.43" x2="886" y2="260.43" stroke="#cccccc" stroke-width="1" /><line x1="63.800000000000004" y1="188.29" x2="886" y2="188.29" stroke="#cccccc" stroke-width="1" /><line x1="63.800000000000004" y1="116.14" x2="886" y2="116.14" stroke="#cccccc" stroke-width="1" /><line x1="63.800000000000004" y1="44" x2="886" y2="44" stroke="#cccccc" stroke-width="1" /><line x1="63.800000000000004" y1="549" x2="886" y2="549" stroke="#000000" stroke-width="1" /><line x1="63.800000000000004" y1="44" x2="63.800000000000004" y2="549" stroke="#000000" stroke-width="1" /><line x1="63.800000000000004" y1="549" x2="63.800000000000004" y2="554" stroke="#000000" stroke-width="1" /><text x="63.800000000000004" y="566" font-size="12" text-anchor="middle">0</text><line x1="474.90000000000003" y1="549" x2="474.90000000000003" y2="554" stroke="#000000" stroke-width="1" /><text x="474.90000000000003" y="566" font-size="12" text-anchor="middle">100</text><line x1="886" y1="549" x2="886" y2="554" stroke="#000000" stroke-width="1" /><text x="886" y="566" font-size="12" text-anchor="middle">200</text><line x1="58.800000000000004" y1="549" x2="63.800000000000004" y2="549" stroke="#000000" stroke-width="1" /><text x="55.800000000000004" y="553.2" font-size="12" text-anchor="end">0</text><line x1="58.800000000000004" y1="476.86" x2="63.800000000000004" y2="476.86" stroke="#000000" stroke-width="1" /><text x="55.800000000000004" y="481.06" font-size="12" text-anchor="end">1000</text><line x1="58.800000000000004" y1="404.71000000000004" x2="63.800000000000004" y2="404.71000000000004" stroke="#000000" stroke-width="1" /><text x="55.800000000000004" y="408.91" font-size="12" text-anchor="end">2000</text><line x1="58.800000000000004" y1="332.57" x2="63.800000000000004" y2="332.57" stroke="#000000" stroke-width="1" /><text x="55.800000000000004" y="336.77" font-size="12" text-anchor="end">3000</text><line x1="58.800000000000004" y1="260.43" x2="63.800000000000004" y2="260.43" stroke="#000000" stroke-width="1" /><text x="55.800000000000004" y="264.63" font-size="12" text-anchor="end">4000</text><line x1="58.800000000000004" y1="188.29" x2="63.800000000000004" y2="188.29" stroke="#000000" stroke-width="1" /><text x="55.800000000000004" y="192.49" font-size="12" text-anchor="end">5000</text><line x1="58.800000000000004" y1="116.14" x2="63.800000000000004" y2="116.14" stroke="#000000" stroke-width="1" /><text x="55.800000000000004" y="120.34" font-size="12" text-anchor="end">6000</text><line x1="58.800000000000004" y1="44" x2="63.800000000000004" y2="44" stroke="#000000" stroke-width="1" /><text x="55.800000000000004" y="48.2" font-size="12" text-anchor="end">7000</text><text x="474.90000000000003" y="593" font-size="14" text-anchor="middle">m(mu+mu-) [GeV]</text><text x="15" y="300" font-size="14" text-anchor="middle" transform="rotate(-90,15,300)">Candidates</text><text x="474.90000000000003" y="22" font-size="18" text-anchor="middle">Dimuon invariant mass (CMS Open Data)</text><g clip-path="url(#kuva-clip-0)"><rect x="63.800000000000004" y="54.03" width="82.22" height="494.97" fill="#2b6cb0" /><rect x="146.02" y="321.39" width="82.22" height="227.61" fill="#2b6cb0" /><rect x="228.24" y="465.75" width="82.22" height="83.25" fill="#2b6cb0" /><rect x="310.46" y="516.9" width="82.22" height="32.1" fill="#2b6cb0" /><rect x="392.68" y="414.31" width="82.22" height="134.69" fill="#2b6cb0" /><rect x="474.90000000000003" y="537.96" width="82.22" height="11.040000000000001" fill="#2b6cb0" /><rect x="557.12" y="546.33" width="82.22" height="2.67" fill="#2b6cb0" /><rect x="639.34" y="547.92" width="82.22" height="1.08" fill="#2b6cb0" /><rect x="721.5600000000001" y="548.0600000000001" width="82.22" height="0.9400000000000001" fill="#2b6cb0" /><rect x="803.78" y="547.85" width="82.22" height="1.1500000000000001" fill="#2b6cb0" /></g></svg>