<svg xmlns="http://www.w3.org/2000/svg" width="900" height="600" font-family="DejaVu Sans, Liberation Sans, Arial, sans-serif" fill="black"><rect width="100%" height="100%" fill="white" /><defs><clipPath id="kuva-clip-0"><rect x="71" y="44" width="811" height="505"/></clipPath></defs><line x1="882" y1="44" x2="882" y2="549" stroke="#cccccc" stroke-width="1" /><line x1="71" y1="448" x2="882" y2="448" stroke="#cccccc" stroke-width="1" /><line x1="71" y1="347" x2="882" y2="347" stroke="#cccccc" stroke-width="1" /><line x1="71" y1="246" x2="882" y2="246" stroke="#cccccc" stroke-width="1" /><line x1="71" y1="145" x2="882" y2="145" stroke="#cccccc" stroke-width="1" /><line x1="71" y1="44" x2="882" y2="44" stroke="#cccccc" stroke-width="1" /><line x1="71" y1="549" x2="882" y2="549" stroke="#000000" stroke-width="1" /><line x1="71" y1="44" x2="71" y2="549" stroke="#000000" stroke-width="1" /><line x1="71" y1="549" x2="71" y2="554" stroke="#000000" stroke-width="1" /><text x="71" y="566" font-size="12" text-anchor="middle">70</text><line x1="882" y1="549" x2="882" y2="554" stroke="#000000" stroke-width="1" /><text x="882" y="566" font-size="12" text-anchor="middle">180</text><line x1="66" y1="549" x2="71" y2="549" stroke="#000000" stroke-width="1" /><text x="63" y="553.2" font-size="12" text-anchor="end">0</text><line x1="66" y1="448" x2="71" y2="448" stroke="#000000" stroke-width="1" /><text x="63" y="452.2" font-size="12" text-anchor="end">5000</text><line x1="66" y1="347" x2="71" y2="347" stroke="#000000" stroke-width="1" /><text x="63" y="351.2" font-size="12" text-anchor="end">10000</text><line x1="66" y1="246" x2="71" y2="246" stroke="#000000" stroke-width="1" /><text x="63" y="250.20000000000002" font-size="12" text-anchor="end">15000</text><line x1="66" y1="145" x2="71" y2="145" stroke="#000000" stroke-width="1" /><text x="63" y="149.20000000000002" font-size="12" text-anchor="end">20000</text><line x1="66" y1="44" x2="71" y2="44" stroke="#000000" stroke-width="1" /><text x="63" y="48.2" font-size="12" text-anchor="end">25000</text><text x="476.5" y="593" font-size="14" text-anchor="middle">m(4l) [GeV]</text><text x="15" y="300" font-size="14" text-anchor="middle" transform="rotate(-90,15,300)">Candidates</text><text x="476.5" y="22" font-size="18" text-anchor="middle">Higgs -&gt; ZZ -&gt; 4l (CMS Open Data)</text><g clip-path="url(#kuva-clip-0)"><rect x="71" y="547.95" width="73.73" height="1.05" fill="#9b2c2c" /><rect x="144.73" y="547.28" width="73.73" height="1.72" fill="#9b2c2c" /><rect x="218.45000000000002" y="546.88" width="73.73" height="2.12" fill="#9b2c2c" /><rect x="292.18" y="542.72" width="73.73" height="6.28" fill="#9b2c2c" /><rect x="365.91" y="506.98" width="73.73" height="42.02" fill="#9b2c2c" /><rect x="439.64" y="76.93" width="73.73" height="472.07" fill="#9b2c2c" /><rect x="513.36" y="535.9300000000001" width="73.73" height="13.07" fill="#9b2c2c" /><rect x="587.09" y="548.4300000000001" width="73.73" height="0.5700000000000001" fill="#9b2c2c" /><rect x="660.82" y="548.8000000000001" width="73.73" height="0.2" fill="#9b2c2c" /><rect x="734.5500000000001" y="548.9" width="73.73" height="0.1" fill="#9b2c2c" /><rect x="808.27" y="548.96" width="73.73" height="0.04" fill="#9b2c2c" /></g></svg>