<svg xmlns="http://www.w3.org/2000/svg" width="900" height="700" font-family="DejaVu Sans, Liberation Sans, Arial, sans-serif" fill="black"><rect width="100%" height="100%" fill="white" /><defs><clipPath id="kuva-clip-0"><rect x="59" y="44" width="747" height="605"/></clipPath></defs><line x1="245.75" y1="44" x2="245.75" y2="649" stroke="#cccccc" stroke-width="1" /><line x1="432.5" y1="44" x2="432.5" y2="649" stroke="#cccccc" stroke-width="1" /><line x1="619.25" y1="44" x2="619.25" y2="649" stroke="#cccccc" stroke-width="1" /><line x1="806" y1="44" x2="806" y2="649" stroke="#cccccc" stroke-width="1" /><line x1="59" y1="497.75" x2="806" y2="497.75" stroke="#cccccc" stroke-width="1" /><line x1="59" y1="346.5" x2="806" y2="346.5" stroke="#cccccc" stroke-width="1" /><line x1="59" y1="195.25" x2="806" y2="195.25" stroke="#cccccc" stroke-width="1" /><line x1="59" y1="44" x2="806" y2="44" stroke="#cccccc" stroke-width="1" /><line x1="59" y1="649" x2="806" y2="649" stroke="#000000" stroke-width="1" /><line x1="59" y1="44" x2="59" y2="649" stroke="#000000" stroke-width="1" /><line x1="59" y1="649" x2="59" y2="654" stroke="#000000" stroke-width="1" /><text x="59" y="666" font-size="12" text-anchor="middle">70</text><line x1="245.75" y1="649" x2="245.75" y2="654" stroke="#000000" stroke-width="1" /><text x="245.75" y="666" font-size="12" text-anchor="middle">97.5</text><line x1="432.5" y1="649" x2="432.5" y2="654" stroke="#000000" stroke-width="1" /><text x="432.5" y="666" font-size="12" text-anchor="middle">125</text><line x1="619.25" y1="649" x2="619.25" y2="654" stroke="#000000" stroke-width="1" /><text x="619.25" y="666" font-size="12" text-anchor="middle">152.5</text><line x1="806" y1="649" x2="806" y2="654" stroke="#000000" stroke-width="1" /><text x="806" y="666" font-size="12" text-anchor="middle">180</text><line x1="54" y1="649" x2="59" y2="649" stroke="#000000" stroke-width="1" /><text x="51" y="653.2" font-size="12" text-anchor="end">0</text><line x1="54" y1="497.75" x2="59" y2="497.75" stroke="#000000" stroke-width="1" /><text x="51" y="501.95" font-size="12" text-anchor="end">5</text><line x1="54" y1="346.5" x2="59" y2="346.5" stroke="#000000" stroke-width="1" /><text x="51" y="350.7" font-size="12" text-anchor="end">10</text><line x1="54" y1="195.25" x2="59" y2="195.25" stroke="#000000" stroke-width="1" /><text x="51" y="199.45000000000002" font-size="12" text-anchor="end">15</text><line x1="54" y1="44" x2="59" y2="44" stroke="#000000" stroke-width="1" /><text x="51" y="48.2" font-size="12" text-anchor="end">20</text><text x="432.5" y="693" font-size="14" text-anchor="middle">m(4l) [GeV]</text><text x="15" y="350" font-size="14" text-anchor="middle" transform="rotate(-90,15,350)">N_Events</text><text x="432.5" y="22" font-size="18" text-anchor="middle">CMS Open Data, sqrt(s)=8 TeV, L=11.6 fb^-1</text><g clip-path="url(#kuva-clip-0)"><rect x="59" y="643.04" width="20.75" height="5.96" fill="#c43c3926" /><rect x="79.75" y="641.63" width="20.75" height="7.37" fill="#c43c3926" /><rect x="100.5" y="636.87" width="20.75" height="12.13" fill="#c43c3926" /><rect x="121.25" y="625.95" width="20.75" height="23.05" fill="#c43c3926" /><rect x="142" y="597.45" width="20.75" height="51.550000000000004" fill="#c43c3926" /><rect x="162.75" y="515.6800000000001" width="20.75" height="133.32" fill="#c43c3926" /><rect x="183.5" y="270.89" width="20.75" height="378.11" fill="#c43c3926" /><rect x="204.25" y="339.69" width="20.75" height="309.31" fill="#c43c3926" /><rect x="225" y="560.33" width="20.75" height="88.67" fill="#c43c3926" /><rect x="245.75" y="612.94" width="20.75" height="36.06" fill="#c43c3926" /><rect x="266.5" y="625.54" width="20.75" height="23.46" fill="#c43c3926" /><rect x="287.25" y="627.79" width="20.75" height="21.21" fill="#c43c3926" /><rect x="308" y="624.94" width="20.75" height="24.060000000000002" fill="#c43c3926" /><rect x="328.75" y="620.92" width="20.75" height="28.080000000000002" fill="#c43c3926" /><rect x="349.5" y="617.5600000000001" width="20.75" height="31.44" fill="#c43c3926" /><rect x="370.25" y="612.82" width="20.75" height="36.18" fill="#c43c3926" /><rect x="391" y="597.63" width="20.75" height="51.370000000000005" fill="#c43c3926" /><rect x="411.75" y="536.22" width="20.75" height="112.78" fill="#c43c3926" /><rect x="432.5" y="539.1" width="20.75" height="109.9" fill="#c43c3926" /><rect x="453.25" y="604.09" width="20.75" height="44.910000000000004" fill="#c43c3926" /><rect x="474" y="612.09" width="20.75" height="36.910000000000004" fill="#c43c3926" /><rect x="494.75" y="615.3000000000001" width="20.75" height="33.7" fill="#c43c3926" /><rect x="515.5" y="615.57" width="20.75" height="33.43" fill="#c43c3926" /><rect x="536.25" y="615.11" width="20.75" height="33.89" fill="#c43c3926" /><rect x="557" y="620.02" width="20.75" height="28.98" fill="#c43c3926" /><rect x="577.75" y="619.97" width="20.75" height="29.03" fill="#c43c3926" /><rect x="598.5" y="618.87" width="20.75" height="30.13" fill="#c43c3926" /><rect x="619.25" y="620.53" width="20.75" height="28.47" fill="#c43c3926" /><rect x="640" y="617.5" width="20.75" height="31.5" fill="#c43c3926" /><rect x="660.75" y="620.25" width="20.75" height="28.75" fill="#c43c3926" /><rect x="681.5" y="619.32" width="20.75" height="29.68" fill="#c43c3926" /><rect x="702.25" y="617.76" width="20.75" height="31.240000000000002" fill="#c43c3926" /><rect x="723" y="616.61" width="20.75" height="32.39" fill="#c43c3926" /><rect x="743.75" y="611.97" width="20.75" height="37.03" fill="#c43c3926" /><rect x="764.5" y="602.84" width="20.75" height="46.160000000000004" fill="#c43c3926" /><rect x="785.25" y="591.12" width="20.75" height="57.88" fill="#c43c3926" /><rect x="59" y="643.14" width="20.75" height="5.86" fill="#7db9d6" /><rect x="79.75" y="641.74" width="20.75" height="7.26" fill="#7db9d6" /><rect x="100.5" y="637.03" width="20.75" height="11.97" fill="#7db9d6" /><rect x="121.25" y="626.13" width="20.75" height="22.87" fill="#7db9d6" /><rect x="142" y="597.67" width="20.75" height="51.33" fill="#7db9d6" /><rect x="162.75" y="515.86" width="20.75" height="133.14000000000001" fill="#7db9d6" /><rect x="183.5" y="271.03000000000003" width="20.75" height="377.97" fill="#7db9d6" /><rect x="204.25" y="339.85" width="20.75" height="309.15000000000003" fill="#7db9d6" /><rect x="225" y="560.64" width="20.75" height="88.36" fill="#7db9d6" /><rect x="245.75" y="613.3000000000001" width="20.75" height="35.7" fill="#7db9d6" /><rect x="266.5" y="626.01" width="20.75" height="22.990000000000002" fill="#7db9d6" /><rect x="287.25" y="628.53" width="20.75" height="20.47" fill="#7db9d6" /><rect x="308" y="625.89" width="20.75" height="23.11" fill="#7db9d6" /><rect x="328.75" y="622.7" width="20.75" height="26.3" fill="#7db9d6" /><rect x="349.5" y="620.75" width="20.75" height="28.25" fill="#7db9d6" /><rect x="370.25" y="619.41" width="20.75" height="29.59" fill="#7db9d6" /><rect x="391" y="616.13" width="20.75" height="32.87" fill="#7db9d6" /><rect x="411.75" y="614.99" width="20.75" height="34.01" fill="#7db9d6" /><rect x="432.5" y="614.95" width="20.75" height="34.05" fill="#7db9d6" /><rect x="453.25" y="614.72" width="20.75" height="34.28" fill="#7db9d6" /><rect x="474" y="614.13" width="20.75" height="34.87" fill="#7db9d6" /><rect x="494.75" y="615.9300000000001" width="20.75" height="33.07" fill="#7db9d6" /><rect x="515.5" y="615.8100000000001" width="20.75" height="33.19" fill="#7db9d6" /><rect x="536.25" y="615.22" width="20.75" height="33.78" fill="#7db9d6" /><rect x="557" y="620.1" width="20.75" height="28.900000000000002" fill="#7db9d6" /><rect x="577.75" y="619.99" width="20.75" height="29.01" fill="#7db9d6" /><rect x="598.5" y="618.91" width="20.75" height="30.09" fill="#7db9d6" /><rect x="619.25" y="620.54" width="20.75" height="28.46" fill="#7db9d6" /><rect x="640" y="617.51" width="20.75" height="31.490000000000002" fill="#7db9d6" /><rect x="660.75" y="620.3000000000001" width="20.75" height="28.7" fill="#7db9d6" /><rect x="681.5" y="619.32" width="20.75" height="29.68" fill="#7db9d6" /><rect x="702.25" y="617.77" width="20.75" height="31.23" fill="#7db9d6" /><rect x="723" y="616.62" width="20.75" height="32.38" fill="#7db9d6" /><rect x="743.75" y="611.98" width="20.75" height="37.02" fill="#7db9d6" /><rect x="764.5" y="602.85" width="20.75" height="46.15" fill="#7db9d6" /><rect x="785.25" y="591.12" width="20.75" height="57.88" fill="#7db9d6" /><circle cx="69.37" cy="649" r="4" fill="#000000" /><line x1="59" y1="649" x2="79.75" y2="649" stroke="#000000" stroke-width="1" /><line x1="59" y1="644" x2="59" y2="654" stroke="#000000" stroke-width="1" /><line x1="79.75" y1="644" x2="79.75" y2="654" stroke="#000000" stroke-width="1" /><line x1="69.37" y1="649" x2="69.37" y2="649" stroke="#000000" stroke-width="1" /><line x1="64.37" y1="649" x2="74.37" y2="649" stroke="#000000" stroke-width="1" /><line x1="64.37" y1="649" x2="74.37" y2="649" stroke="#000000" stroke-width="1" /><circle cx="90.13" cy="649" r="4" fill="#000000" /><line x1="79.75" y1="649" x2="100.5" y2="649" stroke="#000000" stroke-width="1" /><line x1="79.75" y1="644" x2="79.75" y2="654" stroke="#000000" stroke-width="1" /><line x1="100.5" y1="644" x2="100.5" y2="654" stroke="#000000" stroke-width="1" /><line x1="90.13" y1="649" x2="90.13" y2="649" stroke="#000000" stroke-width="1" /><line x1="85.13" y1="649" x2="95.13" y2="649" stroke="#000000" stroke-width="1" /><line x1="85.13" y1="649" x2="95.13" y2="649" stroke="#000000" stroke-width="1" /><circle cx="110.88" cy="649" r="4" fill="#000000" /><line x1="100.5" y1="649" x2="121.25" y2="649" stroke="#000000" stroke-width="1" /><line x1="100.5" y1="644" x2="100.5" y2="654" stroke="#000000" stroke-width="1" /><line x1="121.25" y1="644" x2="121.25" y2="654" stroke="#000000" stroke-width="1" /><line x1="110.88" y1="649" x2="110.88" y2="649" stroke="#000000" stroke-width="1" /><line x1="105.88" y1="649" x2="115.88" y2="649" stroke="#000000" stroke-width="1" /><line x1="105.88" y1="649" x2="115.88" y2="649" stroke="#000000" stroke-width="1" /><circle cx="131.63" cy="649" r="4" fill="#000000" /><line x1="121.25" y1="649" x2="142" y2="649" stroke="#000000" stroke-width="1" /><line x1="121.25" y1="644" x2="121.25" y2="654" stroke="#000000" stroke-width="1" /><line x1="142" y1="644" x2="142" y2="654" stroke="#000000" stroke-width="1" /><line x1="131.63" y1="649" x2="131.63" y2="649" stroke="#000000" stroke-width="1" /><line x1="126.63000000000001" y1="649" x2="136.63" y2="649" stroke="#000000" stroke-width="1" /><line x1="126.63000000000001" y1="649" x2="136.63" y2="649" stroke="#000000" stroke-width="1" /><circle cx="152.38" cy="618.75" r="4" fill="#000000" /><line x1="142" y1="618.75" x2="162.75" y2="618.75" stroke="#000000" stroke-width="1" /><line x1="142" y1="613.75" x2="142" y2="623.75" stroke="#000000" stroke-width="1" /><line x1="162.75" y1="613.75" x2="162.75" y2="623.75" stroke="#000000" stroke-width="1" /><line x1="152.38" y1="649" x2="152.38" y2="588.5" stroke="#000000" stroke-width="1" /><line x1="147.38" y1="649" x2="157.38" y2="649" stroke="#000000" stroke-width="1" /><line x1="147.38" y1="588.5" x2="157.38" y2="588.5" stroke="#000000" stroke-width="1" /><circle cx="173.12" cy="467.5" r="4" fill="#000000" /><line x1="162.75" y1="467.5" x2="183.5" y2="467.5" stroke="#000000" stroke-width="1" /><line x1="162.75" y1="462.5" x2="162.75" y2="472.5" stroke="#000000" stroke-width="1" /><line x1="183.5" y1="462.5" x2="183.5" y2="472.5" stroke="#000000" stroke-width="1" /><line x1="173.12" y1="541.6" x2="173.12" y2="393.40000000000003" stroke="#000000" stroke-width="1" /><line x1="168.12" y1="541.6" x2="178.12" y2="541.6" stroke="#000000" stroke-width="1" /><line x1="168.12" y1="393.40000000000003" x2="178.12" y2="393.40000000000003" stroke="#000000" stroke-width="1" /><circle cx="193.88" cy="225.5" r="4" fill="#000000" /><line x1="183.5" y1="225.5" x2="204.25" y2="225.5" stroke="#000000" stroke-width="1" /><line x1="183.5" y1="220.5" x2="183.5" y2="230.5" stroke="#000000" stroke-width="1" /><line x1="204.25" y1="220.5" x2="204.25" y2="230.5" stroke="#000000" stroke-width="1" /><line x1="193.88" y1="338.69" x2="193.88" y2="112.31" stroke="#000000" stroke-width="1" /><line x1="188.88" y1="338.69" x2="198.88" y2="338.69" stroke="#000000" stroke-width="1" /><line x1="188.88" y1="112.31" x2="198.88" y2="112.31" stroke="#000000" stroke-width="1" /><circle cx="214.62" cy="437.25" r="4" fill="#000000" /><line x1="204.25" y1="437.25" x2="225" y2="437.25" stroke="#000000" stroke-width="1" /><line x1="204.25" y1="432.25" x2="204.25" y2="442.25" stroke="#000000" stroke-width="1" /><line x1="225" y1="432.25" x2="225" y2="442.25" stroke="#000000" stroke-width="1" /><line x1="214.62" y1="517.28" x2="214.62" y2="357.22" stroke="#000000" stroke-width="1" /><line x1="209.62" y1="517.28" x2="219.62" y2="517.28" stroke="#000000" stroke-width="1" /><line x1="209.62" y1="357.22" x2="219.62" y2="357.22" stroke="#000000" stroke-width="1" /><circle cx="235.38" cy="407" r="4" fill="#000000" /><line x1="225" y1="407" x2="245.75" y2="407" stroke="#000000" stroke-width="1" /><line x1="225" y1="402" x2="225" y2="412" stroke="#000000" stroke-width="1" /><line x1="245.75" y1="402" x2="245.75" y2="412" stroke="#000000" stroke-width="1" /><line x1="235.38" y1="492.56" x2="235.38" y2="321.44" stroke="#000000" stroke-width="1" /><line x1="230.38" y1="492.56" x2="240.38" y2="492.56" stroke="#000000" stroke-width="1" /><line x1="230.38" y1="321.44" x2="240.38" y2="321.44" stroke="#000000" stroke-width="1" /><circle cx="256.13" cy="588.5" r="4" fill="#000000" /><line x1="245.75" y1="588.5" x2="266.5" y2="588.5" stroke="#000000" stroke-width="1" /><line x1="245.75" y1="583.5" x2="245.75" y2="593.5" stroke="#000000" stroke-width="1" /><line x1="266.5" y1="583.5" x2="266.5" y2="593.5" stroke="#000000" stroke-width="1" /><line x1="256.13" y1="631.28" x2="256.13" y2="545.72" stroke="#000000" stroke-width="1" /><line x1="251.13" y1="631.28" x2="261.13" y2="631.28" stroke="#000000" stroke-width="1" /><line x1="251.13" y1="545.72" x2="261.13" y2="545.72" stroke="#000000" stroke-width="1" /><circle cx="276.88" cy="618.75" r="4" fill="#000000" /><line x1="266.5" y1="618.75" x2="287.25" y2="618.75" stroke="#000000" stroke-width="1" /><line x1="266.5" y1="613.75" x2="266.5" y2="623.75" stroke="#000000" stroke-width="1" /><line x1="287.25" y1="613.75" x2="287.25" y2="623.75" stroke="#000000" stroke-width="1" /><line x1="276.88" y1="649" x2="276.88" y2="588.5" stroke="#000000" stroke-width="1" /><line x1="271.88" y1="649" x2="281.88" y2="649" stroke="#000000" stroke-width="1" /><line x1="271.88" y1="588.5" x2="281.88" y2="588.5" stroke="#000000" stroke-width="1" /><circle cx="297.63" cy="618.75" r="4" fill="#000000" /><line x1="287.25" y1="618.75" x2="308" y2="618.75" stroke="#000000" stroke-width="1" /><line x1="287.25" y1="613.75" x2="287.25" y2="623.75" stroke="#000000" stroke-width="1" /><line x1="308" y1="613.75" x2="308" y2="623.75" stroke="#000000" stroke-width="1" /><line x1="297.63" y1="649" x2="297.63" y2="588.5" stroke="#000000" stroke-width="1" /><line x1="292.63" y1="649" x2="302.63" y2="649" stroke="#000000" stroke-width="1" /><line x1="292.63" y1="588.5" x2="302.63" y2="588.5" stroke="#000000" stroke-width="1" /><circle cx="318.38" cy="649" r="4" fill="#000000" /><line x1="308" y1="649" x2="328.75" y2="649" stroke="#000000" stroke-width="1" /><line x1="308" y1="644" x2="308" y2="654" stroke="#000000" stroke-width="1" /><line x1="328.75" y1="644" x2="328.75" y2="654" stroke="#000000" stroke-width="1" /><line x1="318.38" y1="649" x2="318.38" y2="649" stroke="#000000" stroke-width="1" /><line x1="313.38" y1="649" x2="323.38" y2="649" stroke="#000000" stroke-width="1" /><line x1="313.38" y1="649" x2="323.38" y2="649" stroke="#000000" stroke-width="1" /><circle cx="339.13" cy="618.75" r="4" fill="#000000" /><line x1="328.75" y1="618.75" x2="349.5" y2="618.75" stroke="#000000" stroke-width="1" /><line x1="328.75" y1="613.75" x2="328.75" y2="623.75" stroke="#000000" stroke-width="1" /><line x1="349.5" y1="613.75" x2="349.5" y2="623.75" stroke="#000000" stroke-width="1" /><line x1="339.13" y1="649" x2="339.13" y2="588.5" stroke="#000000" stroke-width="1" /><line x1="334.13" y1="649" x2="344.13" y2="649" stroke="#000000" stroke-width="1" /><line x1="334.13" y1="588.5" x2="344.13" y2="588.5" stroke="#000000" stroke-width="1" /><circle cx="359.87" cy="588.5" r="4" fill="#000000" /><line x1="349.5" y1="588.5" x2="370.25" y2="588.5" stroke="#000000" stroke-width="1" /><line x1="349.5" y1="583.5" x2="349.5" y2="593.5" stroke="#000000" stroke-width="1" /><line x1="370.25" y1="583.5" x2="370.25" y2="593.5" stroke="#000000" stroke-width="1" /><line x1="359.87" y1="631.28" x2="359.87" y2="545.72" stroke="#000000" stroke-width="1" /><line x1="354.87" y1="631.28" x2="364.87" y2="631.28" stroke="#000000" stroke-width="1" /><line x1="354.87" y1="545.72" x2="364.87" y2="545.72" stroke="#000000" stroke-width="1" /><circle cx="380.63" cy="618.75" r="4" fill="#000000" /><line x1="370.25" y1="618.75" x2="391" y2="618.75" stroke="#000000" stroke-width="1" /><line x1="370.25" y1="613.75" x2="370.25" y2="623.75" stroke="#000000" stroke-width="1" /><line x1="391" y1="613.75" x2="391" y2="623.75" stroke="#000000" stroke-width="1" /><line x1="380.63" y1="649" x2="380.63" y2="588.5" stroke="#000000" stroke-width="1" /><line x1="375.63" y1="649" x2="385.63" y2="649" stroke="#000000" stroke-width="1" /><line x1="375.63" y1="588.5" x2="385.63" y2="588.5" stroke="#000000" stroke-width="1" /><circle cx="401.37" cy="588.5" r="4" fill="#000000" /><line x1="391" y1="588.5" x2="411.75" y2="588.5" stroke="#000000" stroke-width="1" /><line x1="391" y1="583.5" x2="391" y2="593.5" stroke="#000000" stroke-width="1" /><line x1="411.75" y1="583.5" x2="411.75" y2="593.5" stroke="#000000" stroke-width="1" /><line x1="401.37" y1="631.28" x2="401.37" y2="545.72" stroke="#000000" stroke-width="1" /><line x1="396.37" y1="631.28" x2="406.37" y2="631.28" stroke="#000000" stroke-width="1" /><line x1="396.37" y1="545.72" x2="406.37" y2="545.72" stroke="#000000" stroke-width="1" /><circle cx="422.13" cy="528" r="4" fill="#000000" /><line x1="411.75" y1="528" x2="432.5" y2="528" stroke="#000000" stroke-width="1" /><line x1="411.75" y1="523" x2="411.75" y2="533" stroke="#000000" stroke-width="1" /><line x1="432.5" y1="523" x2="432.5" y2="533" stroke="#000000" stroke-width="1" /><line x1="422.13" y1="588.5" x2="422.13" y2="467.5" stroke="#000000" stroke-width="1" /><line x1="417.13" y1="588.5" x2="427.13" y2="588.5" stroke="#000000" stroke-width="1" /><line x1="417.13" y1="467.5" x2="427.13" y2="467.5" stroke="#000000" stroke-width="1" /><circle cx="442.88" cy="497.75" r="4" fill="#000000" /><line x1="432.5" y1="497.75" x2="453.25" y2="497.75" stroke="#000000" stroke-width="1" /><line x1="432.5" y1="492.75" x2="432.5" y2="502.75" stroke="#000000" stroke-width="1" /><line x1="453.25" y1="492.75" x2="453.25" y2="502.75" stroke="#000000" stroke-width="1" /><line x1="442.88" y1="565.39" x2="442.88" y2="430.11" stroke="#000000" stroke-width="1" /><line x1="437.88" y1="565.39" x2="447.88" y2="565.39" stroke="#000000" stroke-width="1" /><line x1="437.88" y1="430.11" x2="447.88" y2="430.11" stroke="#000000" stroke-width="1" /><circle cx="463.62" cy="618.75" r="4" fill="#000000" /><line x1="453.25" y1="618.75" x2="474" y2="618.75" stroke="#000000" stroke-width="1" /><line x1="453.25" y1="613.75" x2="453.25" y2="623.75" stroke="#000000" stroke-width="1" /><line x1="474" y1="613.75" x2="474" y2="623.75" stroke="#000000" stroke-width="1" /><line x1="463.62" y1="649" x2="463.62" y2="588.5" stroke="#000000" stroke-width="1" /><line x1="458.62" y1="649" x2="468.62" y2="649" stroke="#000000" stroke-width="1" /><line x1="458.62" y1="588.5" x2="468.62" y2="588.5" stroke="#000000" stroke-width="1" /><circle cx="484.38" cy="618.75" r="4" fill="#000000" /><line x1="474" y1="618.75" x2="494.75" y2="618.75" stroke="#000000" stroke-width="1" /><line x1="474" y1="613.75" x2="474" y2="623.75" stroke="#000000" stroke-width="1" /><line x1="494.75" y1="613.75" x2="494.75" y2="623.75" stroke="#000000" stroke-width="1" /><line x1="484.38" y1="649" x2="484.38" y2="588.5" stroke="#000000" stroke-width="1" /><line x1="479.38" y1="649" x2="489.38" y2="649" stroke="#000000" stroke-width="1" /><line x1="479.38" y1="588.5" x2="489.38" y2="588.5" stroke="#000000" stroke-width="1" /><circle cx="505.13" cy="618.75" r="4" fill="#000000" /><line x1="494.75" y1="618.75" x2="515.5" y2="618.75" stroke="#000000" stroke-width="1" /><line x1="494.75" y1="613.75" x2="494.75" y2="623.75" stroke="#000000" stroke-width="1" /><line x1="515.5" y1="613.75" x2="515.5" y2="623.75" stroke="#000000" stroke-width="1" /><line x1="505.13" y1="649" x2="505.13" y2="588.5" stroke="#000000" stroke-width="1" /><line x1="500.13" y1="649" x2="510.13" y2="649" stroke="#000000" stroke-width="1" /><line x1="500.13" y1="588.5" x2="510.13" y2="588.5" stroke="#000000" stroke-width="1" /><circle cx="525.88" cy="618.75" r="4" fill="#000000" /><line x1="515.5" y1="618.75" x2="536.25" y2="618.75" stroke="#000000" stroke-width="1" /><line x1="515.5" y1="613.75" x2="515.5" y2="623.75" stroke="#000000" stroke-width="1" /><line x1="536.25" y1="613.75" x2="536.25" y2="623.75" stroke="#000000" stroke-width="1" /><line x1="525.88" y1="649" x2="525.88" y2="588.5" stroke="#000000" stroke-width="1" /><line x1="520.88" y1="649" x2="530.88" y2="649" stroke="#000000" stroke-width="1" /><line x1="520.88" y1="588.5" x2="530.88" y2="588.5" stroke="#000000" stroke-width="1" /><circle cx="546.62" cy="618.75" r="4" fill="#000000" /><line x1="536.25" y1="618.75" x2="557" y2="618.75" stroke="#000000" stroke-width="1" /><line x1="536.25" y1="613.75" x2="536.25" y2="623.75" stroke="#000000" stroke-width="1" /><line x1="557" y1="613.75" x2="557" y2="623.75" stroke="#000000" stroke-width="1" /><line x1="546.62" y1="649" x2="546.62" y2="588.5" stroke="#000000" stroke-width="1" /><line x1="541.62" y1="649" x2="551.62" y2="649" stroke="#000000" stroke-width="1" /><line x1="541.62" y1="588.5" x2="551.62" y2="588.5" stroke="#000000" stroke-width="1" /><circle cx="567.37" cy="467.5" r="4" fill="#000000" /><line x1="557" y1="467.5" x2="577.75" y2="467.5" stroke="#000000" stroke-width="1" /><line x1="557" y1="462.5" x2="557" y2="472.5" stroke="#000000" stroke-width="1" /><line x1="577.75" y1="462.5" x2="577.75" y2="472.5" stroke="#000000" stroke-width="1" /><line x1="567.37" y1="541.6" x2="567.37" y2="393.40000000000003" stroke="#000000" stroke-width="1" /><line x1="562.37" y1="541.6" x2="572.37" y2="541.6" stroke="#000000" stroke-width="1" /><line x1="562.37" y1="393.40000000000003" x2="572.37" y2="393.40000000000003" stroke="#000000" stroke-width="1" /><circle cx="588.13" cy="558.25" r="4" fill="#000000" /><line x1="577.75" y1="558.25" x2="598.5" y2="558.25" stroke="#000000" stroke-width="1" /><line x1="577.75" y1="553.25" x2="577.75" y2="563.25" stroke="#000000" stroke-width="1" /><line x1="598.5" y1="553.25" x2="598.5" y2="563.25" stroke="#000000" stroke-width="1" /><line x1="588.13" y1="610.64" x2="588.13" y2="505.86" stroke="#000000" stroke-width="1" /><line x1="583.13" y1="610.64" x2="593.13" y2="610.64" stroke="#000000" stroke-width="1" /><line x1="583.13" y1="505.86" x2="593.13" y2="505.86" stroke="#000000" stroke-width="1" /><circle cx="608.88" cy="649" r="4" fill="#000000" /><line x1="598.5" y1="649" x2="619.25" y2="649" stroke="#000000" stroke-width="1" /><line x1="598.5" y1="644" x2="598.5" y2="654" stroke="#000000" stroke-width="1" /><line x1="619.25" y1="644" x2="619.25" y2="654" stroke="#000000" stroke-width="1" /><line x1="608.88" y1="649" x2="608.88" y2="649" stroke="#000000" stroke-width="1" /><line x1="603.88" y1="649" x2="613.88" y2="649" stroke="#000000" stroke-width="1" /><line x1="603.88" y1="649" x2="613.88" y2="649" stroke="#000000" stroke-width="1" /><circle cx="629.62" cy="588.5" r="4" fill="#000000" /><line x1="619.25" y1="588.5" x2="640" y2="588.5" stroke="#000000" stroke-width="1" /><line x1="619.25" y1="583.5" x2="619.25" y2="593.5" stroke="#000000" stroke-width="1" /><line x1="640" y1="583.5" x2="640" y2="593.5" stroke="#000000" stroke-width="1" /><line x1="629.62" y1="631.28" x2="629.62" y2="545.72" stroke="#000000" stroke-width="1" /><line x1="624.62" y1="631.28" x2="634.62" y2="631.28" stroke="#000000" stroke-width="1" /><line x1="624.62" y1="545.72" x2="634.62" y2="545.72" stroke="#000000" stroke-width="1" /><circle cx="650.37" cy="588.5" r="4" fill="#000000" /><line x1="640" y1="588.5" x2="660.75" y2="588.5" stroke="#000000" stroke-width="1" /><line x1="640" y1="583.5" x2="640" y2="593.5" stroke="#000000" stroke-width="1" /><line x1="660.75" y1="583.5" x2="660.75" y2="593.5" stroke="#000000" stroke-width="1" /><line x1="650.37" y1="631.28" x2="650.37" y2="545.72" stroke="#000000" stroke-width="1" /><line x1="645.37" y1="631.28" x2="655.37" y2="631.28" stroke="#000000" stroke-width="1" /><line x1="645.37" y1="545.72" x2="655.37" y2="545.72" stroke="#000000" stroke-width="1" /><circle cx="671.12" cy="588.5" r="4" fill="#000000" /><line x1="660.75" y1="588.5" x2="681.5" y2="588.5" stroke="#000000" stroke-width="1" /><line x1="660.75" y1="583.5" x2="660.75" y2="593.5" stroke="#000000" stroke-width="1" /><line x1="681.5" y1="583.5" x2="681.5" y2="593.5" stroke="#000000" stroke-width="1" /><line x1="671.12" y1="631.28" x2="671.12" y2="545.72" stroke="#000000" stroke-width="1" /><line x1="666.12" y1="631.28" x2="676.12" y2="631.28" stroke="#000000" stroke-width="1" /><line x1="666.12" y1="545.72" x2="676.12" y2="545.72" stroke="#000000" stroke-width="1" /><circle cx="691.88" cy="618.75" r="4" fill="#000000" /><line x1="681.5" y1="618.75" x2="702.25" y2="618.75" stroke="#000000" stroke-width="1" /><line x1="681.5" y1="613.75" x2="681.5" y2="623.75" stroke="#000000" stroke-width="1" /><line x1="702.25" y1="613.75" x2="702.25" y2="623.75" stroke="#000000" stroke-width="1" /><line x1="691.88" y1="649" x2="691.88" y2="588.5" stroke="#000000" stroke-width="1" /><line x1="686.88" y1="649" x2="696.88" y2="649" stroke="#000000" stroke-width="1" /><line x1="686.88" y1="588.5" x2="696.88" y2="588.5" stroke="#000000" stroke-width="1" /><circle cx="712.63" cy="649" r="4" fill="#000000" /><line x1="702.25" y1="649" x2="723" y2="649" stroke="#000000" stroke-width="1" /><line x1="702.25" y1="644" x2="702.25" y2="654" stroke="#000000" stroke-width="1" /><line x1="723" y1="644" x2="723" y2="654" stroke="#000000" stroke-width="1" /><line x1="712.63" y1="649" x2="712.63" y2="649" stroke="#000000" stroke-width="1" /><line x1="707.63" y1="649" x2="717.63" y2="649" stroke="#000000" stroke-width="1" /><line x1="707.63" y1="649" x2="717.63" y2="649" stroke="#000000" stroke-width="1" /><circle cx="733.37" cy="618.75" r="4" fill="#000000" /><line x1="723" y1="618.75" x2="743.75" y2="618.75" stroke="#000000" stroke-width="1" /><line x1="723" y1="613.75" x2="723" y2="623.75" stroke="#000000" stroke-width="1" /><line x1="743.75" y1="613.75" x2="743.75" y2="623.75" stroke="#000000" stroke-width="1" /><line x1="733.37" y1="649" x2="733.37" y2="588.5" stroke="#000000" stroke-width="1" /><line x1="728.37" y1="649" x2="738.37" y2="649" stroke="#000000" stroke-width="1" /><line x1="728.37" y1="588.5" x2="738.37" y2="588.5" stroke="#000000" stroke-width="1" /><circle cx="754.12" cy="588.5" r="4" fill="#000000" /><line x1="743.75" y1="588.5" x2="764.5" y2="588.5" stroke="#000000" stroke-width="1" /><line x1="743.75" y1="583.5" x2="743.75" y2="593.5" stroke="#000000" stroke-width="1" /><line x1="764.5" y1="583.5" x2="764.5" y2="593.5" stroke="#000000" stroke-width="1" /><line x1="754.12" y1="631.28" x2="754.12" y2="545.72" stroke="#000000" stroke-width="1" /><line x1="749.12" y1="631.28" x2="759.12" y2="631.28" stroke="#000000" stroke-width="1" /><line x1="749.12" y1="545.72" x2="759.12" y2="545.72" stroke="#000000" stroke-width="1" /><circle cx="774.88" cy="618.75" r="4" fill="#000000" /><line x1="764.5" y1="618.75" x2="785.25" y2="618.75" stroke="#000000" stroke-width="1" /><line x1="764.5" y1="613.75" x2="764.5" y2="623.75" stroke="#000000" stroke-width="1" /><line x1="785.25" y1="613.75" x2="785.25" y2="623.75" stroke="#000000" stroke-width="1" /><line x1="774.88" y1="649" x2="774.88" y2="588.5" stroke="#000000" stroke-width="1" /><line x1="769.88" y1="649" x2="779.88" y2="649" stroke="#000000" stroke-width="1" /><line x1="769.88" y1="588.5" x2="779.88" y2="588.5" stroke="#000000" stroke-width="1" /><circle cx="795.63" cy="588.5" r="4" fill="#000000" /><line x1="785.25" y1="588.5" x2="806" y2="588.5" stroke="#000000" stroke-width="1" /><line x1="785.25" y1="583.5" x2="785.25" y2="593.5" stroke="#000000" stroke-width="1" /><line x1="806" y1="583.5" x2="806" y2="593.5" stroke="#000000" stroke-width="1" /><line x1="795.63" y1="631.28" x2="795.63" y2="545.72" stroke="#000000" stroke-width="1" /><line x1="790.63" y1="631.28" x2="800.63" y2="631.28" stroke="#000000" stroke-width="1" /><line x1="790.63" y1="545.72" x2="800.63" y2="545.72" stroke="#000000" stroke-width="1" /></g><rect x="811" y="34" width="80" height="74" fill="#ffffff" /><rect x="811" y="34" width="80" height="74" fill="none" stroke="#000000" stroke-width="1" /><text x="841" y="53.2" font-size="12" text-anchor="start">m_H = 125 GeV + ZZ</text><rect x="821" y="43" width="12" height="12" fill="#c43c3926" /><text x="841" y="71.2" font-size="12" text-anchor="start">ZZ</text><rect x="821" y="61" width="12" height="12" fill="#7db9d6" /><text x="841" y="89.2" font-size="12" text-anchor="start">Data</text><circle cx="826" cy="85" r="5" fill="#000000" /></svg>